<svg version="1.1" xmlns="http://www.w3.org/2000/svg" xmlns:xlink="http://www.w3.org/1999/xlink" width="1560" height="804"><defs/><g><path fill="none" stroke="#02063B" paint-order="fill stroke markers" d=" M 20 432.5064401149175 L 21 434.0179536098291 L 22 435.5274503633986 L 23 437.0348352957047 L 24 438.54001345984517 L 25 440.04289004791724 L 26 441.54337039698953 L 27 443.0413599950645 L 28 444.5367644870316 L 29 446.0294896806104 L 30 447.5194415522839 L 31 449.0065262532204 L 32 450.4906501151851 L 33 451.9717196564401 L 34 453.4496415876324 L 35 454.92432281767026 L 36 456.39567045958654 L 37 457.8635918363897 L 38 459.327994486901 L 39 460.78878617157886 L 40 462.2458748783285 L 41 463.6991688282976 L 42 465.14857648165736 L 43 466.5940065433685 L 44 468.0353679689314 L 45 469.472569970121 L 46 470.9055220207056 L 47 472.33413386214835 L 48 473.75831550929286 L 49 475.17797725603117 L 50 476.59302968095386 L 51 478.00338365298273 L 52 479.40895033698496 L 53 480.80964119936857 L 54 482.20536801365904 L 55 483.59604286605634 L 56 484.9815781609726 L 57 486.3618866265496 L 58 487.7368813201557 L 59 489.1064756338621 L 60 490.4705832998983 L 61 491.82911839608585 L 62 493.1819953512503 L 63 494.52912895061115 L 64 495.87043434114963 L 65 497.205827036953 L 66 498.53522292453624 L 67 499.85853826814053 L 68 501.175689715007 L 69 502.4865943006276 L 70 503.79116945397004 L 71 505.0893330026796 L 72 506.3810031782545 L 73 507.66609862119634 L 74 508.9445383861349 L 75 510.2162419469267 L 76 511.4811292017271 L 77 512.7391204780357 L 78 513.990136537715 L 79 515.234098581981 L 80 516.470928256367 L 81 517.7005476556585 L 82 518.922879328801 L 83 520.1378462837775 L 84 521.3453719924593 L 85 522.5453803954249 L 86 523.7377959067521 L 87 524.9225434187781 L 88 526.0995483068309 L 89 527.2687364339297 L 90 528.4300341554541 L 91 529.5833683237835 L 92 530.7286662929041 L 93 531.8658559229849 L 94 532.9948655849215 L 95 534.1156241648481 L 96 535.2280610686163 L 97 536.3321062262422 L 98 537.4276900963199 L 99 538.5147436704013 L 100 539.5931984773434 L 101 540.6629865876207 L 102 541.7240406176041 L 103 542.7762937338055 L 104 543.8196796570867 L 105 544.8541326668352 L 106 545.8795876051031 L 107 546.8959798807116 L 108 547.9032454733193 L 109 548.9013209374548 L 110 549.8901434065124 L 111 550.8696505967134 L 112 551.8397808110275 L 113 552.80047294306 L 114 553.7516664809007 L 115 554.6933015109348 L 116 555.6253187216174 L 117 556.5476594072093 L 118 557.4602654714743 L 119 558.3630794313387 L 120 559.2560444205128 L 121 560.1391041930718 L 122 561.0122031269988 L 123 561.8752862276887 L 124 562.728299131412 L 125 563.571188108739 L 126 564.403900067924 L 127 565.2263825582498 L 128 566.0385837733311 L 129 566.8404525543776 L 130 567.6319383934169 L 131 568.4129914364755 L 132 569.1835624867189 L 133 569.9436030075506 L 134 570.6930651256692 L 135 571.4319016340843 L 136 572.160065995089 L 137 572.8775123431922 L 138 573.584195488007 L 139 574.2800709170973 L 140 574.9650947987816 L 141 575.6392239848935 L 142 576.3024160135004 L 143 576.9546291115769 L 144 577.595822197637 L 145 578.2259548843208 L 146 578.8449874809396 L 147 579.4528809959747 L 148 580.0495971395344 L 149 580.635098325765 L 150 581.2093476752186 L 151 581.7723090171763 L 152 582.3239468919262 L 153 582.8642265529969 L 154 583.3931139693462 L 155 583.9105758275048 L 156 584.4165795336743 L 157 584.9110932157805 L 158 585.3940857254809 L 159 585.8655266401265 L 160 586.3253862646783 L 161 586.7736356335776 L 162 587.2102465125702 L 163 587.6351914004855 L 164 588.0484435309681 L 165 588.4499768741642 L 166 588.8397661383607 L 167 589.2177867715785 L 168 589.5840149631193 L 169 589.938427645065 L 170 590.2810024937303 L 171 590.61171793107 L 172 590.9305531260371 L 173 591.2374879958953 L 174 591.5325032074838 L 175 591.8155801784355 L 176 592.086701078347 L 177 592.3458488299016 L 178 592.5930071099455 L 179 592.8281603505155 L 180 593.0512937398199 L 181 593.2623932231712 L 182 593.4614455038716 L 183 593.6484380440503 L 184 593.8233590654534 L 185 593.9861975501858 L 186 594.1369432414051 L 187 594.2755866439676 L 188 594.4021190250266 L 189 594.5165324145826 L 190 594.6188196059842 L 191 594.7089741563838 L 192 594.7869903871419 L 193 594.8528633841859 L 194 594.9065889983186 L 195 594.9481638454804 L 196 594.9775853069618 L 197 594.9948515295689 L 198 594.99996142574 L 199 594.9929146736139 L 200 594.9737117170499 L 201 594.9423537656007 L 202 594.8988427944356 L 203 594.8431815442161 L 204 594.7753735209234 L 205 594.6954229956375 L 206 594.6033350042685 L 207 594.4991153472387 L 208 594.3827705891181 L 209 594.2543080582102 L 210 594.1137358460907 L 211 593.9610628070978 L 212 593.7962985577748 L 213 593.6194534762635 L 214 593.4305387016517 L 215 593.2295661332705 L 216 593.0165484299455 L 217 592.791499009199 L 218 592.554432046405 L 219 592.3053624738968 L 220 592.0443059800253 L 221 591.7712790081723 L 222 591.4862987557134 L 223 591.1893831729355 L 224 590.8805509619066 L 225 590.5598215752963 L 226 590.2272152151521 L 227 589.882752831626 L 228 589.5264561216554 L 229 589.158347527596 L 230 588.7784502358082 L 231 588.3867881751975 L 232 587.983386015706 L 233 587.5682691667594 L 234 587.1414637756662 L 235 586.7029967259709 L 236 586.2528956357604 L 237 585.7911888559246 L 238 585.3179054683704 L 239 584.8330752841905 L 240 584.3367288417846 L 241 583.8288974049372 L 242 583.3096129608471 L 243 582.7789082181133 L 244 582.2368166046747 L 245 581.6833722657045 L 246 581.1186100614591 L 247 580.542565565083 L 248 579.9552750603677 L 249 579.3567755394661 L 250 578.7471047005629 L 251 578.1263009454997 L 252 577.4944033773565 L 253 576.8514517979885 L 254 576.1974867055188 L 255 575.5325492917879 L 256 574.856681439759 L 257 574.1699257208797 L 258 573.4723253924012 L 259 572.7639243946523 L 260 572.0447673482732 L 261 571.3148995514039 L 262 570.5743669768314 L 263 569.8232162690936 L 264 569.061494741542 L 265 568.2892503733608 L 266 567.5065318065451 L 267 566.7133883428372 L 268 565.9098699406208 L 269 565.0960272117743 L 270 564.2719114184833 L 271 563.4375744700114 L 272 562.5930689194304 L 273 561.7384479603104 L 274 560.8737654233689 L 275 559.9990757730807 L 276 559.1144341042464 L 277 558.2198961385229 L 278 557.3155182209139 L 279 556.4013573162192 L 280 555.4774710054485 L 281 554.5439174821934 L 282 553.6007555489623 L 283 552.6480446134765 L 284 551.6858446849282 L 285 550.7142163702003 L 286 549.73322087005 L 287 548.7429199752526 L 288 547.74337606271 L 289 546.734652091522 L 290 545.71681159902 L 291 544.6899186967657 L 292 543.6540380665119 L 293 542.6092349561296 L 294 541.5555751754966 L 295 540.4931250923537 L 296 539.4219516281236 L 297 538.3421222536956 L 298 537.2537049851762 L 299 536.156768379605 L 300 535.0513815306354 L 301 533.9376140641839 L 302 532.8155361340436 L 303 531.6852184174656 L 304 530.5467321107076 L 305 529.4001489245487 L 306 528.2455410797729 L 307 527.0829813026203 L 308 525.9125428202053 L 309 524.7342993559057 L 310 523.5483251247174 L 311 522.354694828581 L 312 521.1534836516757 L 313 519.9447672556842 L 314 518.7286217750261 L 315 517.5051238120636 L 316 516.2743504322754 L 317 515.0363791594028 L 318 513.7912879705672 L 319 512.5391552913575 L 320 511.2800599908911 L 321 510.01408137684575 L 322 508.74129919046413 L 323 507.4617936015311 L 324 506.1756452033243 L 325 504.88293500753707 L 326 503.58374443917654 L 327 502.27815533143416 L 328 500.9662499205316 L 329 499.6481108405407 L 330 498.32382111817856 L 331 496.993464167578 L 332 495.65712378503315 L 333 494.3148841437217 L 334 492.96682978840283 L 335 491.61304563009173 L 336 490.2536169407117 L 337 488.8886293477226 L 338 487.51816882872765 L 339 486.1423217060577 L 340 484.7611746413342 L 341 483.3748146300103 L 342 481.9833289958914 L 343 480.58680538563476 L 344 479.1853317632287 L 345 477.77899640445224 L 346 476.36788789131447 L 347 474.9520951064751 L 348 473.531707227646 L 349 472.10681372197405 L 350 470.6775043404057 L 351 469.24386911203385 L 352 467.8059983384271 L 353 466.36398258794196 L 354 464.9179126900178 L 355 463.467879729456 L 356 462.0139750406829 L 357 460.5562902019962 L 358 459.09491702979733 L 359 457.62994757280774 L 360 456.1614741062709 L 361 454.6895891261404 L 362 453.2143853432537 L 363 451.73595567749226 L 364 450.254393251929 L 365 448.7697913869626 L 366 447.28224359443936 L 367 445.79184357176325 L 368 444.29868519599387 L 369 442.8028625179336 L 370 441.3044697562034 L 371 439.80360129130815 L 372 438.3003516596922 L 373 436.79481554778397 L 374 435.2870877860326 L 375 433.7772633429344 L 376 432.2654373190512 L 377 430.7517049410198 L 378 429.23616155555436 L 379 427.71890262344033 L 380 426.2000237135218 L 381 424.6796204966816 L 382 423.15778873981554 L 383 421.63462429979984 L 384 420.1102231174538 L 385 418.5846812114962 L 386 417.05809467249753 L 387 415.53055965682773 L 388 414.0021723805989 L 389 412.4730291136053 L 390 410.94322617325946 L 391 409.4128599185252 L 392 407.88202674384837 L 393 406.35082307308505 L 394 404.8193453534281 L 395 403.28769004933207 L 396 401.7559536364372 L 397 400.2242325954926 L 398 398.69262340627915 L 399 397.16122254153237 L 400 395.63012646086594 L 401 394.0994316046959 L 402 392.56923438816574 L 403 391.0396311950742 L 404 389.5107183718034 L 405 387.9825922212506 L 406 386.4553489967625 L 407 384.9290848960718 L 408 383.40389605523876 L 409 381.87987854259495 L 410 380.3571283526929 L 411 378.83574140025894 L 412 377.3158135141522 L 413 375.79744043132825 L 414 374.28071779080915 L 415 372.76574112765906 L 416 371.25260586696686 L 417 369.7414073178355 L 418 368.2322406673786 L 419 366.7252009747251 L 420 365.2203831650313 L 421 363.71788202350194 L 422 362.21779218941987 L 423 360.720208150185 L 424 359.2252242353626 L 425 357.73293461074167 L 426 356.24343327240393 L 427 354.75681404080285 L 428 353.27317055485435 L 429 351.79259626603846 L 430 350.31518443251326 L 431 348.8410281132406 L 432 347.37022016212467 L 433 345.90285322216306 L 434 344.4390197196115 L 435 342.9788118581625 L 436 341.52232161313697 L 437 340.06964072569144 L 438 338.6208606970391 L 439 337.1760727826868 L 440 335.7353679866864 L 441 334.2988370559034 L 442 332.86657047430026 L 443 331.4386584572376 L 444 330.01519094579135 L 445 328.5962576010877 L 446 327.1819477986556 L 447 325.772350622797 L 448 324.3675548609758 L 449 322.9676489982252 L 450 321.5727212115745 L 451 320.1828593644946 L 452 318.79815100136386 L 453 317.41868334195397 L 454 316.044543275936 L 455 314.6758173574076 L 456 313.3125917994409 L 457 311.9549524686523 L 458 310.602984879794 L 459 309.2567741903673 L 460 307.91640519525913 L 461 306.5819623214006 L 462 305.2535296224495 L 463 303.9311907734955 L 464 302.6150290657901 L 465 301.30512740150004 L 466 300.0015682884856 L 467 298.70443383510343 L 468 297.4138057450348 L 469 296.1297653121394 L 470 294.85239341533463 L 471 293.5817705135013 L 472 292.3179766404156 L 473 291.06109139970835 L 474 289.81119395985024 L 475 288.56836304916584 L 476 287.3326769508742 L 477 286.10421349815823 L 478 284.8830500692622 L 479 283.6692635826176 L 480 282.46293049199835 L 481 281.26412678170516 L 482 280.07292796177967 L 483 278.88940906324757 L 484 277.7136446333933 L 485 276.5457087310641 L 486 275.3856749220052 L 487 274.2336162742261 L 488 273.0896053533984 L 489 271.95371421828474 L 490 270.8260144162 L 491 269.70657697850504 L 492 268.5954724161321 L 493 267.4927707151439 L 494 266.39854133232495 L 495 265.3128531908071 L 496 264.2357746757277 L 497 263.1673736299227 L 498 262.10771734965294 L 499 261.0568725803655 L 500 260.0149055124896 L 501 258.9818817772672 L 502 257.9578664426192 L 503 256.9429240090471 L 504 255.93711840556986 L 505 254.94051298569744 L 506 253.95317052344018 L 507 252.97515320935491 L 508 252.00652264662762 L 509 251.04733984719317 L 510 250.09766522789238 L 511 249.15755860666644 L 512 248.22707919878914 L 513 247.30628561313702 L 514 246.3952358484977 L 515 245.4939872899167 L 516 244.60259670508282 L 517 243.72112024075258 L 518 242.84961341921354 L 519 241.98813113478712 L 520 241.13672765037086 L 521 240.29545659402083 L 522 239.46437095557317 L 523 238.64352308330686 L 524 237.8329646806461 L 525 237.0327468029039 L 526 236.2429198540659 L 527 235.4635335836158 L 528 234.6946370834017 L 529 233.93627878454373 L 530 233.1885064543837 L 531 232.45136719347627 L 532 231.72490743262208 L 533 231.0091729299433 L 534 230.30420876800142 L 535 229.61005935095753 L 536 228.92676840177543 L 537 228.25437895946763 L 538 227.59293337638442 L 539 226.94247331554612 L 540 226.30303974801893 L 541 225.67467295033418 L 542 225.05741250195135 L 543 224.45129728276518 L 544 223.85636547065658 L 545 223.272654539088 L 546 222.70020125474295 L 547 222.1390416752102 L 548 221.5892111467126 L 549 221.0507443018807 L 550 220.5236750575713 L 551 220.0080366127311 L 552 219.50386144630548 L 553 219.01118131519306 L 554 218.5300272522449 L 555 218.06042956431017 L 556 217.6024178303271 L 557 217.15602089945986 L 558 216.7212668892813 L 559 216.29818318400214 L 560 215.8867964327458 L 561 215.4871325478701 L 562 215.09921670333486 L 563 214.72307333311645 L 564 214.35872612966867 L 565 214.00619804243027 L 566 213.66551127637973 L 567 213.3366872906363 L 568 213.0197467971084 L 569 212.7147097591894 L 570 212.42159539049948 L 571 212.140422153676 L 572 211.87120775921042 L 573 211.61396916433253 L 574 211.36872257194258 L 575 211.1354834295907 L 576 210.91426642850377 L 577 210.70508550266007 L 578 210.50795382791176 L 579 210.32288382115473 L 580 210.14988713954668 L 581 209.98897467977278 L 582 209.8401565773593 L 583 209.7034422060352 L 584 209.57884017714173 L 585 209.46635833909005 L 586 209.36600377686676 L 587 209.2777828115877 L 588 209.20170100009983 L 589 209.1377631346312 L 590 209.08597324248905 L 591 209.04633458580614 L 592 209.0188496613354 L 593 209.00352020029248 L 594 209.00034716824683 L 595 209.00933076506084 L 596 209.0304704248773 L 597 209.06376481615493 L 598 209.10921184175237 L 599 209.16680863906018 L 600 209.23655158018124 L 601 209.31843627215918 L 602 209.41245755725518 L 603 209.5186095132727 L 604 209.63688545393066 L 605 209.7672779292845 L 606 209.90977872619544 L 607 210.06437886884785 L 608 210.2310686193146 L 609 210.40983747817052 L 610 210.6006741851534 L 611 210.80356671987371 L 612 211.01850230257145 L 613 211.24546739492118 L 614 211.48444770088483 L 615 211.73542816761207 L 616 211.9983929863885 L 617 212.27332559363145 L 618 212.56020867193328 L 619 212.8590241511521 L 620 213.16975320955004 L 621 213.4923762749787 L 622 213.8268730261121 L 623 214.17322239372652 L 624 214.5314025620277 L 625 214.90139097002495 L 626 215.2831643129522 L 627 215.676698543736 L 628 216.08196887451004 L 629 216.49894977817652 L 630 216.9276149900143 L 631 217.3679375093328 L 632 217.81988960117312 L 633 218.28344279805484 L 634 218.7585679017691 L 635 219.24523498521776 L 636 219.7434133942985 L 637 220.25307174983556 L 638 220.77417794955628 L 639 221.30669917011323 L 640 221.85060186915155 L 641 222.40585178742182 L 642 222.9724139509379 L 643 223.5502526731799 L 644 224.139331557342 L 645 224.73961349862506 L 646 225.35106068657362 L 647 225.97363460745757 L 648 226.6072960466981 L 649 227.25200509133782 L 650 227.90772113255449 L 651 228.57440286821918 L 652 229.25200830549764 L 653 229.94049476349542 L 654 230.6398188759462 L 655 231.34993659394337 L 656 232.0708031887145 L 657 232.80237325443878 L 658 233.54460071110705 L 659 234.29743880742424 L 660 235.06084012375416 L 661 235.83475657510624 L 662 236.61913941416447 L 663 237.41393923435785 L 664 238.2191059729723 L 665 239.03458891430412 L 666 239.86033669285436 L 667 240.69629729656432 L 668 241.54241807009163 L 669 242.39864571812683 L 670 243.2649263087505 L 671 244.14120527683008 L 672 245.02742742745707 L 673 245.92353693942334 L 674 246.82947736873749 L 675 247.74519165217995 L 676 248.6706221108973 L 677 249.60571045403535 L 678 250.5503977824108 L 679 251.50462459222098 L 680 252.46833077879208 L 681 253.44145564036504 L 682 254.4239378819188 L 683 255.41571561903132 L 684 256.4167263817775 L 685 257.42690711866396 L 686 258.44619420060064 L 687 259.4745234249085 L 688 260.5118300193637 L 689 261.55804864627726 L 690 262.61311340661064 L 691 263.6769578441266 L 692 264.7495149495752 L 693 265.83071716491435 L 694 266.9204963875653 L 695 268.0187839747023 L 696 269.1255107475761 L 697 270.2406069958715 L 698 271.3640024820983 L 699 272.49562644601525 L 700 273.6354076090873 L 701 274.7832741789749 L 702 275.93915385405654 L 703 277.1029738279825 L 704 278.2746607942609 L 705 279.4541409508751 L 706 280.6413400049324 L 707 281.8361831773433 L 708 283.0385952075321 L 709 284.2485003581774 L 710 285.4658224199818 L 711 286.69048471647324 L 712 287.92241010883413 L 713 289.1615210007603 L 714 290.4077393433484 L 715 291.6609866400124 L 716 292.92118395142757 L 717 294.188251900503 L 718 295.46211067738113 L 719 296.7426800444649 L 720 298.0298793414718 L 721 299.32362749051447 L 722 300.62384300120743 L 723 301.93044397580036 L 724 303.24334811433624 L 725 304.56247271983557 L 726 305.88773470350515 L 727 307.2190505899716 L 728 308.5563365225393 L 729 309.89950826847263 L 730 311.2484812243011 L 731 312.6031704211488 L 732 313.96349053008606 L 733 315.32935586750443 L 734 316.70068040051353 L 735 318.0773777523601 L 736 319.4593612078686 L 737 320.8465437189035 L 738 322.23883790985184 L 739 323.63615608312716 L 740 325.0384102246934 L 741 326.44551200960836 L 742 327.85737280758724 L 743 329.2739036885857 L 744 330.6950154284006 L 745 332.1206185142909 L 746 333.5506231506151 L 747 334.9849392644877 L 748 336.4234765114526 L 749 337.86614428117366 L 750 339.31285170314214 L 751 340.7635076524004 L 752 342.2180207552815 L 753 343.67629939516496 L 754 345.1382517182472 L 755 346.60378563932727 L 756 348.0728088476073 L 757 349.54522881250665 L 758 351.0209527894904 L 759 352.4998878259112 L 760 353.9819407668638 L 761 355.4670182610531 L 762 356.955026766674 L 763 358.4458725573032 L 764 359.93946172780306 L 765 361.43570020023645 L 766 362.9344937297924 L 767 364.43574791072245 L 768 365.93936818228707 L 769 367.4452598347118 L 770 368.9533280151529 L 771 370.46347773367177 L 772 371.9756138692184 L 773 373.4896411756224 L 774 375.0054642875928 L 775 376.5229877267249 L 776 378.04211590751385 L 777 379.5627531433757 L 778 381.0848036526744 L 779 382.60817156475485 L 780 384.13276092598164 L 781 385.65847570578296 L 782 387.1852198026993 L 783 388.7128970504366 L 784 390.2414112239238 L 785 391.77066604537373 L 786 393.30056519034724 L 787 394.8310122938208 L 788 396.361910956256 L 789 397.89316474967194 L 790 399.4246772237186 L 791 400.9563519117523 L 792 402.48809233691185 L 793 404.0198020181955 L 794 405.55138447653775 L 795 407.0827432408869 L 796 408.613781854281 L 797 410.1444038799239 L 798 411.6745129072593 L 799 413.2040125580436 L 800 414.73280649241644 L 801 416.26079841496903 L 802 417.7878920808096 L 803 419.3139913016256 L 804 420.8389999517426 L 805 422.36282197417825 L 806 423.88536138669394 L 807 425.4065222878396 L 808 426.92620886299466 L 809 428.44432539040315 L 810 429.96077624720283 L 811 431.4754659154487 L 812 432.98829898812903 L 813 434.499180175175 L 814 436.00801430946296 L 815 437.5147063528085 L 816 439.01916140195294 L 817 440.5212846945411 L 818 442.02098161508997 L 819 443.5181577009484 L 820 445.01271864824724 L 821 446.50457031783924 L 822 447.99361874122854 L 823 449.4797701264898 L 824 450.9629308641758 L 825 452.4430075332137 L 826 453.9199069067894 L 827 455.3935359582198 L 828 456.8638018668122 L 829 458.33061202371107 L 830 459.7938740377311 L 831 461.25349574117683 L 832 462.7093851956481 L 833 464.16145069783084 L 834 465.6096007852736 L 835 467.05374424214847 L 836 468.49379010499604 L 837 469.9296476684559 L 838 471.36122649097945 L 839 472.7884364005265 L 840 474.21118750024544 L 841 475.6293901741352 L 842 477.04295509269036 L 843 478.45179321852737 L 844 479.85581581199335 L 845 481.2549344367552 L 846 482.6490609653702 L 847 484.03810758483695 L 848 485.42198680212636 L 849 486.80061144969295 L 850 488.1738946909651 L 851 489.5417500258146 L 852 490.9040912960057 L 853 492.2608326906211 L 854 493.61188875146786 L 855 494.95717437845974 L 856 496.29660483497753 L 857 497.63009575320666 L 858 498.95756313945094 L 859 500.27892337942353 L 860 501.5940932435135 L 861 502.90298989202813 L 862 504.205530880411 L 863 505.5016341644349 L 864 506.7912181053695 L 865 508.074201475124 L 866 509.35050346136313 L 867 510.6200436725974 L 868 511.8827421432466 L 869 513.1385193386774 L 870 514.3872961602121 L 871 515.6289939501119 L 872 516.8635344965301 L 873 518.0908400384399 L 874 519.3108332705311 L 875 520.5234373480805 L 876 521.7285758917917 L 877 522.9261729926055 L 878 524.1161532164824 L 879 525.2984416091532 L 880 526.4729637008404 L 881 527.639645510949 L 882 528.7984135527263 L 883 529.9491948378906 L 884 531.0919168812287 L 885 532.2265077051616 L 886 533.352895844278 L 887 534.4710103498362 L 888 535.5807807942322 L 889 536.6821372754366 L 890 537.7750104213974 L 891 538.8593313944092 L 892 539.9350318954496 L 893 541.0020441684807 L 894 542.0603010047175 L 895 543.1097357468609 L 896 544.1502822932961 L 897 545.1818751022568 L 898 546.204449195953 L 899 547.2179401646639 L 900 548.222284170795 L 901 549.2174179528993 L 902 550.2032788296617 L 903 551.1798047038473 L 904 552.1469340662125 L 905 553.1046059993799 L 906 554.0527601816749 L 907 554.9913368909253 L 908 555.920277008223 L 909 556.8395220216482 L 910 557.7490140299547 L 911 558.6486957462162 L 912 559.538510501436 L 913 560.4184022481159 L 914 561.288315563786 L 915 562.1481956544965 L 916 562.9979883582686 L 917 563.8376401485057 L 918 564.6670981373658 L 919 565.4863100790919 L 920 566.2952243733037 L 921 567.0937900682469 L 922 567.8819568640033 L 923 568.6596751156585 L 924 569.4268958364296 L 925 570.1835707007498 L 926 570.9296520473133 L 927 571.665092882077 L 928 572.3898468812203 L 929 573.1038683940632 L 930 573.8071124459418 L 931 574.4995347410409 L 932 575.1810916651846 L 933 575.8517402885825 L 934 576.511438368535 L 935 577.1601443520931 L 936 577.7978173786761 L 937 578.4244172826454 L 938 579.0399045958343 L 939 579.6442405500338 L 940 580.2373870794354 L 941 580.8193068230273 L 942 581.3899631269494 L 943 581.9493200468007 L 944 582.4973423499039 L 945 583.0339955175245 L 946 583.5592457470457 L 947 584.0730599540963 L 948 584.5754057746357 L 949 585.0662515669918 L 950 585.5455664138547 L 951 586.0133201242234 L 952 586.4694832353076 L 953 586.9140270143843 L 954 587.3469234606061 L 955 587.7681453067668 L 956 588.177666021017 L 957 588.5754598085366 L 958 588.9615016131592 L 959 589.3357671189501 L 960 589.6982327517381 L 961 590.0488756806006 L 962 590.3876738193011 L 963 590.7146058276808 L 964 591.0296511130028 L 965 591.332789831249 L 966 591.62400288837 L 967 591.903271941488 L 968 592.1705794000521 L 969 592.4259084269461 L 970 592.6692429395492 L 971 592.9005676107492 L 972 593.1198678699076 L 973 593.3271299037774 L 974 593.5223406573733 L 975 593.7054878347942 L 976 593.8765598999971 L 977 594.0355460775243 L 978 594.1824363531817 L 979 594.3172214746703 L 980 594.4398929521678 L 981 594.5504430588645 L 982 594.6488648314491 L 983 594.7351520705483 L 984 594.8092993411161 L 985 594.871301972777 L 986 594.9211560601202 L 987 594.9588584629447 L 988 594.9844068064582 L 989 594.9977994814261 L 990 594.9990356442728 L 991 594.9881152171351 L 992 594.9650388878671 L 993 594.9298081099964 L 994 594.8824251026335 L 995 594.8228928503308 L 996 594.7512151028957 L 997 594.6673963751538 L 998 594.5714419466645 L 999 594.4633578613891 L 1000 594.3431509273091 L 1001 594.2108287159982 L 1002 594.0663995621451 L 1003 593.9098725630283 L 1004 593.7412575779435 L 1005 593.5605652275824 L 1006 593.3678068933634 L 1007 593.1629947167155 L 1008 592.9461415983127 L 1009 592.7172611972617 L 1010 592.4763679302418 L 1011 592.2234769705966 L 1012 591.9586042473783 L 1013 591.6817664443442 L 1014 591.3929809989063 L 1015 591.0922661010322 L 1016 590.7796406921004 L 1017 590.4551244637059 L 1018 590.1187378564211 L 1019 589.7705020585078 L 1020 589.4104390045821 L 1021 589.0385713742337 L 1022 588.6549225905969 L 1023 588.2595168188749 L 1024 587.8523789648184 L 1025 587.4335346731565 L 1026 587.0030103259811 L 1027 586.5608330410855 L 1028 586.1070306702563 L 1029 585.6416317975193 L 1030 585.1646657373379 L 1031 584.6761625327687 L 1032 584.1761529535668 L 1033 583.6646684942498 L 1034 583.1417413721122 L 1035 582.6074045251978 L 1036 582.0616916102236 L 1037 581.5046370004607 L 1038 580.9362757835688 L 1039 580.3566437593862 L 1040 579.7657774376748 L 1041 579.1637140358209 L 1042 578.5504914764902 L 1043 577.9261483852393 L 1044 577.2907240880834 L 1045 576.6442586090186 L 1046 575.9867926675009 L 1047 575.3183676758819 L 1048 574.6390257367995 L 1049 573.9488096405266 L 1050 573.247762862276 L 1051 572.5359295594611 L 1052 571.8133545689153 L 1053 571.0800834040675 L 1054 570.3361622520754 L 1055 569.5816379709163 L 1056 568.8165580864356 L 1057 568.0409707893531 L 1058 567.2549249322278 L 1059 566.4584700263805 L 1060 565.6516562387758 L 1061 564.8345343888611 L 1062 564.0071559453668 L 1063 563.1695730230637 L 1064 562.3218383794804 L 1065 561.4640054115805 L 1066 560.5961281523992 L 1067 559.7182612676396 L 1068 558.8304600522297 L 1069 557.9327804268394 L 1070 557.0252789343582 L 1071 556.1080127363336 L 1072 555.1810396093708 L 1073 554.2444179414933 L 1074 553.2982067284653 L 1075 552.3424655700755 L 1076 551.3772546663831 L 1077 550.4026348139264 L 1078 549.4186674018923 L 1079 548.4254144082508 L 1080 547.42293839585 L 1081 546.4113025084764 L 1082 545.3905704668766 L 1083 544.3608065647446 L 1084 543.3220756646715 L 1085 542.2744431940603 L 1086 541.2179751410042 L 1087 540.152738050131 L 1088 539.0787990184108 L 1089 537.9962256909303 L 1090 536.9050862566315 L 1091 535.8054494440171 L 1092 534.6973845168209 L 1093 533.5809612696457 L 1094 532.4562500235663 L 1095 531.3233216217011 L 1096 530.1822474247487 L 1097 529.0330993064939 L 1098 527.8759496492804 L 1099 526.7108713394513 L 1100 525.5379377627581 L 1101 524.357222799739 L 1102 523.1688008210645 L 1103 521.9727466828527 L 1104 520.7691357219564 L 1105 519.5580437512149 L 1106 518.3395470546805 L 1107 517.113722382813 L 1108 515.8806469476455 L 1109 514.6403984179209 L 1110 513.3930549141998 L 1111 512.1386950039398 L 1112 510.87739769654667 L 1113 509.60924243839776 L 1114 508.33430910783784 L 1115 507.05267801014776 L 1116 505.76442987248606 L 1117 504.46964583880447 L 1118 503.1684074647364 L 1119 501.8607967124602 L 1120 500.5468959455366 L 1121 499.22678792372056 L 1122 497.9005557977485 L 1123 496.56828310410106 L 1124 495.2300537597408 L 1125 493.88595205682714 L 1126 492.5360626574063 L 1127 491.1804705880792 L 1128 489.8192612346452 L 1129 488.45252033672455 L 1130 487.08033398235716 L 1131 485.70278860258065 L 1132 484.31997096598593 L 1133 482.93196817325185 L 1134 481.538867651659 L 1135 480.14075714958295 L 1136 478.73772473096693 L 1137 477.329858769775 L 1138 475.9172479444257 L 1139 474.4999812322061 L 1140 473.07814790366757 L 1141 471.6518375170026 L 1142 470.22113991240406 L 1143 468.78614520640593 L 1144 467.3469437862074 L 1145 465.90362630397937 L 1146 464.45628367115467 L 1147 463.0050070527014 L 1148 461.5498878613811 L 1149 460.09101775199053 L 1150 458.6284886155886 L 1151 457.1623925737084 L 1152 455.6928219725548 L 1153 454.21986937718725 L 1154 452.7436275656901 L 1155 451.2641895233279 L 1156 449.7816484366891 L 1157 448.29609768781614 L 1158 446.80763084832336 L 1159 445.3163416735035 L 1160 443.82232409642194 L 1161 442.3256722220003 L 1162 440.8264803210889 L 1163 439.3248428245287 L 1164 437.8208543172033 L 1165 436.3146095320817 L 1166 434.8062033442504 L 1167 433.29573076493887 L 1168 431.7832869355333 L 1169 430.26896712158486 L 1170 428.75286670680885 L 1171 427.2350811870769 L 1172 425.7157061644016 L 1173 424.194837340915 L 1174 422.6725705128403 L 1175 421.1490015644581 L 1176 419.62422646206664 L 1177 418.0983412479371 L 1178 416.57144203426446 L 1179 415.043624997113 L 1180 413.51498637035894 L 1181 411.98562243962857 L 1182 410.45562953623346 L 1183 408.9251040311029 L 1184 407.3941423287135 L 1185 405.862840861017 L 1186 404.3312960813663 L 1187 402.79960445844 L 1188 401.2678624701659 L 1189 399.7361665976443 L 1190 398.20461331907075 L 1191 396.67329910365913 L 1192 395.1423204055653 L 1193 393.61177365781145 L 1194 392.0817552662123 L 1195 390.55236160330264 L 1196 389.0236890022667 L 1197 387.4958337508708 L 1198 385.9688920853981 L 1199 384.442960184587 L 1200 382.918134163573 L 1201 381.3945100678345 L 1202 379.8721838671436 L 1203 378.3512514495204 L 1204 376.83180861519395 L 1205 375.31395107056744 L 1206 373.7977744221903 L 1207 372.2833741707358 L 1208 370.77084570498585 L 1209 369.2602842958229 L 1210 367.75178509022834 L 1211 366.2454431052902 L 1212 364.7413532222177 L 1213 363.2396101803651 L 1214 361.7403085712642 L 1215 360.2435428326663 L 1216 358.74940724259375 L 1217 357.25799591340143 L 1218 355.769402785849 L 1219 354.28372162318385 L 1220 352.80104600523487 L 1221 351.3214693225183 L 1222 349.8450847703551 L 1223 348.3719853430009 L 1224 346.90226382778854 L 1225 345.43601279928345 L 1226 343.9733246134526 L 1227 342.51429140184723 L 1228 341.0590050657998 L 1229 339.6075572706348 L 1230 338.1600394398964 L 1231 336.71654274958786 L 1232 335.2771581224298 L 1233 333.841976222133 L 1234 332.4110874476875 L 1235 330.98458192766884 L 1236 329.56254951456077 L 1237 328.1450797790958 L 1238 326.7322620046131 L 1239 325.32418518143527 L 1240 323.9209380012624 L 1241 322.52260885158597 L 1242 321.1292858101214 L 1243 319.74105663926025 L 1244 318.3580087805421 L 1245 316.9802293491472 L 1246 315.60780512840864 L 1247 314.2408225643468 L 1248 312.8793677602237 L 1249 311.5235264711199 L 1250 310.17338409853267 L 1251 308.82902568499696 L 1252 307.49053590872893 L 1253 306.1579990782918 L 1254 304.83149912728567 L 1255 303.51111960906076 L 1256 302.1969436914545 L 1257 300.8890541515532 L 1258 299.58753337047756 L 1259 298.2924633281942 L 1260 297.00392559835166 L 1261 295.7220013431423 L 1262 294.4467713081902 L 1263 293.1783158174649 L 1264 291.91671476822216 L 1265 290.6620476259714 L 1266 289.41439341947023 L 1267 288.1738307357467 L 1268 286.9404377151494 L 1269 285.71429204642516 L 1270 284.4954709618259 L 1271 283.28405123224417 L 1272 282.08010916237686 L 1273 280.88372058591966 L 1274 279.6949608607898 L 1275 278.51390486438015 L 1276 277.34062698884196 L 1277 276.17520113639995 L 1278 275.0177007146967 L 1279 273.8681986321692 L 1280 272.72676729345653 L 1281 271.59347859483904 L 1282 270.4684039197099 L 1283 269.3516141340788 L 1284 268.24317958210816 L 1285 267.1431700816825 L 1286 266.0516549200106 L 1287 264.9687028492613 L 1288 263.89438208223294 L 1289 262.82876028805674 L 1290 261.7719045879345 L 1291 260.723881550911 L 1292 259.6847571896803 L 1293 258.654596956429 L 1294 257.63346573871206 L 1295 256.6214278553665 L 1296 255.61854705246017 L 1297 254.6248864992761 L 1298 253.64050878433395 L 1299 252.6654759114475 L 1300 251.69984929581923 L 1301 250.74368976017197 L 1302 249.79705753091773 L 1303 248.86001223436412 L 1304 247.93261289295873 L 1305 247.01491792157145 L 1306 246.1069851238149 L 1307 245.2088716884036 L 1308 244.3206341855518 L 1309 243.4423285634102 L 1310 242.5740101445419 L 1311 241.71573362243777 L 1312 240.86755305807145 L 1313 240.02952187649407 L 1314 239.20169286346922 L 1315 238.3841181621481 L 1316 237.576849269785 L 1317 236.7799370344937 L 1318 235.99343165204482 L 1319 235.21738266270367 L 1320 234.45183894811026 L 1321 233.69684872820008 L 1322 232.952459558167 L 1323 232.21871832546768 L 1324 231.4956712468684 L 1325 230.78336386553386 L 1326 230.08184104815865 L 1327 229.39114698214104 L 1328 228.71132517279977 L 1329 228.04241844063375 L 1330 227.38446891862495 L 1331 226.73751804958437 L 1332 226.10160658354187 L 1333 225.47677457517923 L 1334 224.8630613813073 L 1335 224.26050565838685 L 1336 223.66914536009395 L 1337 223.08901773492912 L 1338 222.52015932387116 L 1339 221.9626059580756 L 1340 221.41639275661774 L 1341 220.88155412428057 L 1342 220.3581237493876 L 1343 219.84613460168106 L 1344 219.34561893024517 L 1345 218.85660826147472 L 1346 218.3791333970894 L 1347 217.91322441219364 L 1348 217.4589106533823 L 1349 217.01622073689205 L 1350 216.58518254679907 L 1351 216.16582323326259 L 1352 215.75816921081469 L 1353 215.36224615669667 L 1354 214.97807900924164 L 1355 214.60569196630357 L 1356 214.24510848373345 L 1357 213.89635127390142 L 1358 213.55944230426655 L 1359 213.23440279599293 L 1360 212.92125322261302 L 1361 212.6200133087382 L 1362 212.33070202881623 L 1363 212.0533376059361 L 1364 211.7879375106803 L 1365 211.53451846002423 L 1366 211.29309641628345 L 1367 211.06368658610793 L 1368 210.84630341952456 L 1369 210.64096060902676 L 1370 210.44767108871204 L 1371 210.26644703346741 L 1372 210.09729985820243 L 1373 209.9402402171302 L 1374 209.7952780030963 L 1375 209.6624223469557 L 1376 209.54168161699758 L 1377 209.43306341841816 L 1378 209.33657459284188 L 1379 209.2522212178902 L 1380 209.18000860679896 L 1381 209.1199413080837 L 1382 209.07202310525304 L 1383 209.0362570165705 L 1384 209.01264529486429 L 1385 209.00118942738544 L 1386 209.00189013571423 L 1387 209.0147473757145 L 1388 209.03976033753668 L 1389 209.07692744566862 L 1390 209.1262463590349 L 1391 209.18771397114435 L 1392 209.26132641028556 L 1393 209.34707903977096 L 1394 209.4449664582287 L 1395 209.5549824999429 L 1396 209.6771202352421 L 1397 209.81137197093574 L 1398 209.95772925079862 L 1399 210.11618285610356 L 1400 210.28672280620225 L 1401 210.4693383591537 L 1402 210.66401801240093 L 1403 210.87074950349555 L 1404 211.08951981086997 L 1405 211.32031515465783 L 1406 211.56312099756178 L 1407 211.81792204576928 L 1408 212.0847022499158 L 1409 212.36344480609588 L 1410 212.65413215692138 L 1411 212.95674599262762 L 1412 213.27126725222644 L 1413 213.597676124707 L 1414 213.93595205028348 L 1415 214.2860737216902 L 1416 214.64801908552369 L 1417 215.0217653436318 L 1418 215.40728895454973 L 1419 215.80456563498257 L 1420 216.21357036133531 L 1421 216.6342773712888 L 1422 217.06666016542243 L 1423 217.51069150888327 L 1424 217.9663434331016 L 1425 218.43358723755264 L 1426 218.91239349156413 L 1427 219.4027320361703 L 1428 219.90457198601143 L 1429 220.41788173127932 L 1430 220.94262893970816 L 1431 221.4787805586113 L 1432 222.02630281696298 L 1433 222.5851612275256 L 1434 223.15532058902193 L 1435 223.7367449883524 L 1436 224.3293978028572 L 1437 224.93324170262298 L 1438 225.54823865283433 L 1439 226.17434991616935 L 1440 226.81153605523974 L 1441 227.4597569350748 L 1442 228.11897172564952 L 1443 228.78913890445634 L 1444 229.4702162591205 L 1445 230.162160890059 L 1446 230.86492921318273 L 1447 231.57847696264173 L 1448 232.30275919361335 L 1449 233.0377302851333 L 1450 233.78334394296917 L 1451 234.5395532025364 L 1452 235.30631043185656 L 1453 236.08356733455747 L 1454 236.87127495291531 L 1455 237.66938367093843 L 1456 238.4778432174925 L 1457 239.296602669467 L 1458 240.12561045498268 L 1459 240.96481435664006 L 1460 241.81416151480852 L 1461 242.67359843095562 L 1462 243.5430709710171 L 1463 244.4225243688065 L 1464 245.31190322946478 L 1465 246.21115153294963 L 1466 247.1202126375639 L 1467 248.0390292835235 L 1468 248.9675435965639 L 1469 249.90569709158564 L 1470 250.85343067633812 L 1471 251.81068465514167 L 1472 252.77739873264773 L 1473 253.7535120176366 L 1474 254.73896302685304 L 1475 255.7336896888787 L 1476 256.7376293480421 L 1477 257.7507187683651 L 1478 258.77289413754596 L 1479 259.80409107097864 L 1480 260.84424461580863 L 1481 261.8932892550239 L 1482 262.95115891158105 L 1483 264.01778695256894 L 1484 265.09310619340425 L 1485 266.17704890206403 L 1486 267.26954680335194 L 1487 268.37053108319844 L 1488 269.47993239299547 L 1489 270.5976808539647 L 1490 271.72370606155863 L 1491 272.8579370898957 L 1492 274.0003024962275 L 1493 275.1507303254386 L 1494 276.3091481145794 L 1495 277.47548289742974 L 1496 278.6496612090955 L 1497 279.83160909063554 L 1498 281.02125209372053 L 1499 282.21851528532204 L 1500 283.4233232524326 L 1501 284.6356001068157 L 1502 285.85526948978577 L 1503 287.08225457701803 L 1504 288.31647808338727 L 1505 289.55786226783613 L 1506 290.8063289382716 L 1507 292.06179945649023 L 1508 293.32419474313156 L 1509 294.5934352826588 L 1510 295.8694411283676 L 1511 297.15213190742196 L 1512 298.44142682591604 L 1513 299.73724467396386 L 1514 301.03950383081417 L 1515 302.34812226999173 L 1516 303.6630175644639 L 1517 304.9841068918326 L 1518 306.3113070395509 L 1519 307.64453441016485 L 1520 308.98370502657855 L 1521 310.3287345373442 L 1522 311.6795382219747 L 1523 313.03603099628066 L 1524 314.3981274177289 L 1525 315.76574169082494 L 1526 317.1387876725166 L 1527 318.51717887762044 L 1528 319.9008284842688 L 1529 321.2896493393788 L 1530 322.6835539641418 L 1531 324.08245455953374 L 1532 325.4862630118449 L 1533 326.8948908982307 L 1534 328.30824949228054 L 1535 329.72624976960697 L 1536 331.14880241345304 L 1537 332.575817820318 L 1538 334.0072061056014 L 1539 335.4428771092649" stroke-linecap="round" stroke-linejoin="round" stroke-miterlimit="10" stroke-width="7"/></g></svg>